<svg width="84" height="66" viewBox="0 0 84 66" fill="none" xmlns="http://www.w3.org/2000/svg">
<rect width="84" height="66" rx="12" fill="#A44CD3"/>
<mask id="mask0_315_385" style="mask-type:alpha" maskUnits="userSpaceOnUse" x="22" y="12" width="41" height="42">
<rect x="22.235" y="12.7451" width="40.51" height="40.51" fill="#D9D9D9"/>
</mask>
<g mask="url(#mask0_315_385)">
<path d="M32.4 42.519C31.9467 42.519 31.5667 42.3637 31.26 42.0532C30.9533 41.7426 30.8 41.3578 30.8 40.8987V32.757C30.8 32.2979 30.9533 31.9198 31.26 31.6228C31.5667 31.3257 31.9467 31.1772 32.4 31.1772C32.8533 31.1772 33.2333 31.3325 33.54 31.643C33.8467 31.9536 34 32.3384 34 32.7975V40.9392C34 41.3983 33.8467 41.7764 33.54 42.0734C33.2333 42.3705 32.8533 42.519 32.4 42.519ZM42 42.519C41.5467 42.519 41.1667 42.3637 40.86 42.0532C40.5533 41.7426 40.4 41.3578 40.4 40.8987V32.757C40.4 32.2979 40.5533 31.9198 40.86 31.6228C41.1667 31.3257 41.5467 31.1772 42 31.1772C42.4533 31.1772 42.8333 31.3325 43.14 31.643C43.4467 31.9536 43.6 32.3384 43.6 32.7975V40.9392C43.6 41.3983 43.4467 41.7764 43.14 42.0734C42.8333 42.3705 42.4533 42.519 42 42.519ZM27.56 49C27.1067 49 26.7333 48.8447 26.44 48.5342C26.1467 48.2236 26 47.8388 26 47.3797C26 46.9207 26.1533 46.5359 26.46 46.2253C26.7667 45.9148 27.1467 45.7595 27.6 45.7595H56.44C56.8933 45.7595 57.2667 45.9148 57.56 46.2253C57.8533 46.5359 58 46.9207 58 47.3797C58 47.8388 57.8467 48.2236 57.54 48.5342C57.2333 48.8447 56.8533 49 56.4 49H27.56ZM51.6 42.519C51.1467 42.519 50.7667 42.3637 50.46 42.0532C50.1533 41.7426 50 41.3578 50 40.8987V32.757C50 32.2979 50.1533 31.9198 50.46 31.6228C50.7667 31.3257 51.1467 31.1772 51.6 31.1772C52.0533 31.1772 52.4333 31.3325 52.74 31.643C53.0467 31.9536 53.2 32.3384 53.2 32.7975V40.9392C53.2 41.3983 53.0467 41.7764 52.74 42.0734C52.4333 42.3705 52.0533 42.519 51.6 42.519ZM43.44 17.3241L56.92 24.1291C57.2667 24.3181 57.5333 24.5814 57.72 24.919C57.9067 25.2565 58 25.6278 58 26.0329C58 26.573 57.8067 27.0253 57.42 27.3899C57.0333 27.7544 56.5733 27.9367 56.04 27.9367H28C27.4667 27.9367 27 27.7544 26.6 27.3899C26.2 27.0253 26 26.573 26 26.0329C26 25.6278 26.0867 25.2565 26.26 24.919C26.4333 24.5814 26.7067 24.3316 27.08 24.1696L40.56 17.3241C41.0133 17.108 41.4933 17 42 17C42.5067 17 42.9867 17.108 43.44 17.3241ZM33.12 24.6962H50.88L42 20.2405L33.12 24.6962Z" fill="white"/>
</g>
</svg>
