<svg width="18" height="20" viewBox="0 0 18 20" fill="none" xmlns="http://www.w3.org/2000/svg">
<path d="M2.5 20C1.95 20 1.47917 19.8042 1.0875 19.4125C0.695833 19.0208 0.5 18.55 0.5 18V5C0.5 4.71667 0.595833 4.47917 0.7875 4.2875C0.979167 4.09583 1.21667 4 1.5 4C1.78333 4 2.02083 4.09583 2.2125 4.2875C2.40417 4.47917 2.5 4.71667 2.5 5V18H12.5C12.7833 18 13.0208 18.0958 13.2125 18.2875C13.4042 18.4792 13.5 18.7167 13.5 19C13.5 19.2833 13.4042 19.5208 13.2125 19.7125C13.0208 19.9042 12.7833 20 12.5 20H2.5ZM6.5 16C5.95 16 5.47917 15.8042 5.0875 15.4125C4.69583 15.0208 4.5 14.55 4.5 14V2C4.5 1.45 4.69583 0.979167 5.0875 0.5875C5.47917 0.195833 5.95 0 6.5 0H15.5C16.05 0 16.5208 0.195833 16.9125 0.5875C17.3042 0.979167 17.5 1.45 17.5 2V14C17.5 14.55 17.3042 15.0208 16.9125 15.4125C16.5208 15.8042 16.05 16 15.5 16H6.5ZM6.5 14H15.5V2H6.5V14Z" fill="#87A2BC"/>
</svg>
