<svg width="19" height="20" viewBox="0 0 19 20" fill="none" xmlns="http://www.w3.org/2000/svg">
<path d="M3.5 20C2.66667 20 1.95833 19.7083 1.375 19.125C0.791667 18.5417 0.5 17.8333 0.5 17V16C0.5 15.45 0.695833 14.9792 1.0875 14.5875C1.47917 14.1958 1.95 14 2.5 14H3.5V2C3.5 1.45 3.69583 0.979167 4.0875 0.5875C4.47917 0.195833 4.95 0 5.5 0H16.5C17.05 0 17.5208 0.195833 17.9125 0.5875C18.3042 0.979167 18.5 1.45 18.5 2V17C18.5 17.8333 18.2083 18.5417 17.625 19.125C17.0417 19.7083 16.3333 20 15.5 20H3.5ZM15.5 18C15.7833 18 16.0208 17.9042 16.2125 17.7125C16.4042 17.5208 16.5 17.2833 16.5 17V2H5.5V14H12.5C13.05 14 13.5208 14.1958 13.9125 14.5875C14.3042 14.9792 14.5 15.45 14.5 16V17C14.5 17.2833 14.5958 17.5208 14.7875 17.7125C14.9792 17.9042 15.2167 18 15.5 18ZM7.5 7C7.21667 7 6.97917 6.90417 6.7875 6.7125C6.59583 6.52083 6.5 6.28333 6.5 6C6.5 5.71667 6.59583 5.47917 6.7875 5.2875C6.97917 5.09583 7.21667 5 7.5 5H14.5C14.7833 5 15.0208 5.09583 15.2125 5.2875C15.4042 5.47917 15.5 5.71667 15.5 6C15.5 6.28333 15.4042 6.52083 15.2125 6.7125C15.0208 6.90417 14.7833 7 14.5 7H7.5ZM7.5 10C7.21667 10 6.97917 9.90417 6.7875 9.7125C6.59583 9.52083 6.5 9.28333 6.5 9C6.5 8.71667 6.59583 8.47917 6.7875 8.2875C6.97917 8.09583 7.21667 8 7.5 8H14.5C14.7833 8 15.0208 8.09583 15.2125 8.2875C15.4042 8.47917 15.5 8.71667 15.5 9C15.5 9.28333 15.4042 9.52083 15.2125 9.7125C15.0208 9.90417 14.7833 10 14.5 10H7.5ZM3.5 18H12.5V16H2.5V17C2.5 17.2833 2.59583 17.5208 2.7875 17.7125C2.97917 17.9042 3.21667 18 3.5 18ZM3.5 18H2.5H12.5H3.5Z" fill="#87A2BC"/>
</svg>
