<svg width="46" height="46" viewBox="0 0 46 46" fill="none" xmlns="http://www.w3.org/2000/svg">
<path fill-rule="evenodd" clip-rule="evenodd" d="M13.6746 17.6092C13.6746 18.1522 14.077 18.5449 14.6687 18.5449L16.357 17.8941C20.5579 16.3757 26.3707 16.5064 30.5076 18.2017C31.0911 18.4408 31.5661 18.8112 32.1127 18.271C32.5167 17.8715 32.4139 17.2697 32.0805 16.9797C31.8597 16.7877 30.2431 16.1694 29.8934 16.0675C29.3398 15.9063 28.824 15.7671 28.2821 15.6322C27.8491 15.5244 27.0119 15.3287 26.5391 15.3287C26.6343 14.9196 27.1863 14.2346 27.2992 13.7498C28.3391 13.7498 30.065 14.5663 30.9172 14.9268L31.9802 15.5011C32.4549 15.7748 32.6353 15.7772 32.8742 16.186C34.6191 19.171 35.6632 23.8746 36.0601 27.5018C36.2135 28.9049 36.3111 28.8058 35.8811 29.2317C34.9706 30.1335 33.8009 30.8144 32.6595 31.3898C31.8923 31.7766 30.3402 32.2863 29.2289 32.2863C29.0561 32.0283 27.8823 30.6276 27.8255 30.4151C28.2204 30.4151 29.2512 30.1054 29.6156 29.9832L31.2923 29.3794C31.8543 29.1559 32.3201 28.9242 32.8208 28.6274C33.3147 28.3345 33.9654 28.0776 33.9654 27.4329C33.9654 27.1729 33.8716 26.9807 33.7425 26.8371C33.1409 26.1682 32.3838 26.8199 32.0328 27.0206C30.9123 27.6617 30.1071 27.9816 28.8128 28.3617C24.4712 29.6366 19.2088 29.3429 15.0612 27.5668C14.2845 27.2342 13.4562 26.5558 13.0314 26.5558C12.0074 26.5558 11.8026 27.6905 12.5142 28.1841C12.7396 28.3404 12.9699 28.465 13.2034 28.6058C14.0322 29.1056 15.4381 29.7015 16.3976 29.9726C16.8583 30.1028 17.7579 30.4045 18.2356 30.4151C18.187 30.5972 18.0223 30.7549 17.9031 30.9013L16.8322 32.2864C15.7495 32.2864 14.1765 31.7736 13.4398 31.4101C12.0183 30.7089 11.6454 30.4058 10.4921 29.5046C10.0466 29.1565 9.82236 29.0076 9.88676 28.563C10.1907 26.464 10.2058 25.3146 10.7625 22.9421C11.0343 21.7836 11.3233 20.663 11.6786 19.5895C12.0371 18.5068 12.483 17.4972 12.9721 16.5559C13.4312 15.6727 13.5614 15.7982 14.7242 15.1503C15.6355 14.6426 17.8413 13.7499 18.7619 13.7499C18.8749 14.2347 19.4268 14.9197 19.5221 15.3288C18.4526 15.3288 14.8363 16.392 14.0476 16.9297C13.89 17.0372 13.6746 17.3963 13.6746 17.6093V17.6092ZM38.0001 28.6519V29.3404C37.9218 29.8367 37.6082 30.1051 36.8447 30.7802C36.2205 31.3322 35.3409 31.9426 34.6341 32.3704C33.1669 33.2582 31.6494 33.8057 29.9153 34.0253C28.8774 34.1568 28.4802 34.189 27.9921 33.5817L25.7789 30.766C24.8777 30.841 23.9804 30.9414 23.0306 30.9414C22.4843 30.9414 22.1138 30.8774 21.6272 30.8829C21.1264 30.8886 20.7122 30.7755 20.2823 30.766L19.1531 32.2096C17.7103 33.9813 17.9463 34.297 16.0454 34.0088C14.4789 33.7713 13.5521 33.478 12.1737 32.7932L9.18601 30.752C8.74722 30.3437 8.06104 29.8523 8.06104 29.3042C8.06104 28.5778 8.15587 27.937 8.22604 27.3055C8.42074 25.5518 8.76207 23.5173 9.17211 21.8778C9.83525 19.2262 10.4365 17.381 11.8427 14.9585C12.1715 14.392 13.125 14.0004 13.6993 13.6575C13.938 13.515 14.1961 13.3983 14.4339 13.2812C15.6224 12.6958 17.1121 12.1811 18.4426 11.9687C19.2219 11.8443 19.6255 11.8317 20.0004 12.3359C20.1204 12.4975 20.2566 12.8211 20.3602 13.0286C20.4949 13.2984 20.5956 13.4594 20.7309 13.7106L21.4517 15.0948C21.9736 15.0948 22.2649 15.0363 22.7966 15.0363L24.6094 15.0948L25.3508 13.6726C26.1937 12.1668 26.0205 11.6974 27.7177 11.9864C29.777 12.3371 32.0008 13.3278 33.7201 14.4628C34.059 14.6866 34.0275 14.6319 34.2396 14.9959C35.0006 16.3017 35.7939 17.9678 36.2121 19.4555C36.2956 19.7523 36.3705 19.952 36.4593 20.2607C36.624 20.8326 36.7537 21.3364 36.9008 21.9244C37.3606 23.7626 37.5983 25.4399 37.8418 27.3572C37.912 27.9103 37.9705 28.3246 38.0001 28.6518V28.6519Z" fill="white"/>
<path fill-rule="evenodd" clip-rule="evenodd" d="M28.527 23.2232C28.527 25.2661 26.5804 25.6778 25.9172 24.0203C25.4471 22.8454 26.4475 21.1973 27.6822 21.7873C28.1181 21.9955 28.527 22.5998 28.527 23.2232ZM24.0244 23.2816C24.0244 26.6053 27.5411 27.9349 29.4185 25.8105C31.2893 23.6935 30.1497 19.8901 27.0651 19.8901C25.3976 19.8901 24.0244 21.5713 24.0244 23.2817V23.2816Z" fill="white"/>
<path fill-rule="evenodd" clip-rule="evenodd" d="M18.937 25.0355C16.8602 25.0355 17.2047 21.2089 19.2047 21.7244C20.6975 22.1091 20.5337 25.0355 18.937 25.0355ZM15.7209 23.3982C15.7209 24.3675 16.0875 25.0811 16.6223 25.7714C17.5623 26.9846 19.6039 27.3421 21.0871 25.8406C23.0728 23.8307 21.7275 19.8896 18.9955 19.8896C17.0008 19.8896 15.7209 21.5355 15.7209 23.3981V23.3982Z" fill="white"/>
</svg>
