<svg width="139" height="30" viewBox="0 0 139 30" fill="none" xmlns="http://www.w3.org/2000/svg">
<path d="M43.1712 10.0881C43.1712 10.6913 43.0284 11.2609 42.7438 11.7962C42.459 12.3317 42.0034 12.7676 41.3772 13.1034C40.7507 13.4395 39.9478 13.6073 38.968 13.6073H36.8151V18.4255H34.8673V6.55106H38.968C39.8791 6.55106 40.6508 6.70786 41.2828 7.02103C41.9152 7.33435 42.3879 7.75899 42.7012 8.29422C43.0143 8.82946 43.1712 9.42736 43.1712 10.0882V10.0881ZM38.968 12.0186C39.7084 12.0186 40.2608 11.8506 40.6251 11.5147C40.9897 11.1786 41.1719 10.703 41.1719 10.0882C41.1719 8.78975 40.4371 8.14045 38.968 8.14045H36.8151V12.0186H38.968ZM54.6842 15.9996H49.7122L48.858 18.4255H46.8246L51.0794 6.53416H53.3342L57.5887 18.4255H55.5381L54.6842 15.9996ZM54.1371 14.4103L52.2069 8.89198L50.2591 14.4103H54.137H54.1371ZM68.094 18.4253L65.36 13.6756H63.8736V18.4253H61.9259V6.55091H66.0263C66.9377 6.55091 67.7094 6.71089 68.3415 7.02955C68.9736 7.3485 69.4464 7.7753 69.76 8.31112C70.0727 8.84635 70.2295 9.44425 70.2295 10.1051C70.2295 10.8793 70.0043 11.5829 69.5546 12.215C69.1044 12.8471 68.4124 13.277 67.4785 13.5048L70.4176 18.4253H68.094ZM63.8736 12.1207H66.0263C66.7552 12.1207 67.3051 11.9389 67.675 11.5742C68.0455 11.2099 68.2305 10.72 68.2305 10.1051C68.2305 9.48959 68.048 9.00879 67.6837 8.66096C67.3191 8.31357 66.7667 8.14016 66.0263 8.14016H63.8736V12.1206V12.1207ZM82.3745 15.9996H77.4027L76.5482 18.4255H74.5149L78.7696 6.53416H81.0248L85.279 18.4255H83.2284L82.3745 15.9996ZM81.8277 14.4103L79.8971 8.89198L77.9494 14.4103H81.8276H81.8277ZM91.4958 16.7338H97.0143V18.4253H89.1894V16.9047L94.6904 8.24268H89.1894V6.55077H97.0143V8.07173L91.4958 16.7337V16.7338ZM107.058 18.545C105.953 18.545 104.936 18.286 104.008 17.7676C103.08 17.2496 102.345 16.5261 101.804 15.5978C101.263 14.6699 100.993 13.6245 100.993 12.4625C100.993 11.3009 101.263 10.2589 101.804 9.33597C102.345 8.41363 103.08 7.69315 104.008 7.17451C104.936 6.65646 105.953 6.39714 107.058 6.39714C108.174 6.39714 109.197 6.65646 110.125 7.17451C111.053 7.69315 111.785 8.41363 112.32 9.33597C112.856 10.2589 113.123 11.3009 113.123 12.4625C113.123 13.6245 112.856 14.6699 112.32 15.5978C111.785 16.5261 111.053 17.2497 110.125 17.7676C109.197 18.286 108.174 18.545 107.058 18.545ZM107.058 16.8538C107.844 16.8538 108.545 16.6745 109.159 16.3156C109.775 15.9566 110.256 15.4442 110.603 14.7777C110.951 14.1112 111.124 13.3396 111.124 12.4625C111.124 11.5855 110.951 10.8169 110.603 10.1561C110.256 9.49566 109.775 8.98857 109.159 8.63569C108.544 8.28238 107.844 8.1058 107.058 8.1058C106.272 8.1058 105.571 8.28238 104.957 8.63569C104.342 8.98843 103.86 9.49551 103.513 10.1561C103.166 10.8169 102.992 11.5855 102.992 12.4625C102.992 13.3395 103.166 14.1112 103.513 14.7777C103.86 15.4442 104.342 15.9565 104.957 16.3156C105.571 16.6745 106.272 16.8538 107.058 16.8538ZM127.284 18.4253H125.337L119.476 9.55803V18.4253H117.529V6.53402H119.476L125.337 15.3844V6.53402H127.284V18.4253ZM134.287 8.12313V11.6083H138.387V13.1974H134.287V16.8366H138.9V18.4253H132.339V6.53402H138.9V8.12313H134.287Z" fill="white"/>
<path fill-rule="evenodd" clip-rule="evenodd" d="M24.9305 0.000144386H14.994V4.87879H20.0517V9.93647H24.9303V0L24.9305 0.000144386ZM4.87864 30H0V15.0058H4.87864V20.0635H9.93633V24.9422H4.87864V29.9999V30ZM24.9305 24.9423H14.994V20.0637H20.0517V15.006H24.9303V24.9425L24.9305 24.9423ZM0 0.000288771H9.93647V4.87893H4.87879V9.93661H0.000144386V0.000144386L0 0.000288771Z" fill="white"/>
</svg>
