<svg width="31" height="30" viewBox="0 0 31 30" fill="none" xmlns="http://www.w3.org/2000/svg">
<path fill-rule="evenodd" clip-rule="evenodd" d="M6.0209 6.00008H24.0825V23.9999H27.0935C28.7487 23.9999 30.1045 22.6499 30.1045 20.9994V8.9995C30.1045 7.35004 28.7498 5.99897 27.0935 5.99897H24.0825V2.99956C24.0825 1.3501 22.7278 -0.000968933 21.0715 -0.000968933H9.02968C7.37446 -0.000968933 6.01868 1.34899 6.01868 2.99956V6.00008L3.00989 6.00008L3.011 5.99897C1.35467 5.99897 0 7.35004 0 8.9995V29.9998H6.0209V6.00008ZM24.0825 23.9999H12.0407L12.0396 24.001V30.001H21.0714C22.7278 30.001 24.0825 28.6499 24.0825 27.0004V23.9999ZM12.0407 18V12H18.0616V18H12.0407Z" fill="white"/>
</svg>
