<svg width="46" height="46" viewBox="0 0 46 46" fill="none" xmlns="http://www.w3.org/2000/svg">
<path d="M23 26.5C23.9667 26.5 24.7917 26.1583 25.475 25.475C26.1583 24.7917 26.5 23.9667 26.5 23C26.5 22.0333 26.1583 21.2083 25.475 20.525C24.7917 19.8417 23.9667 19.5 23 19.5C22.0333 19.5 21.2083 19.8417 20.525 20.525C19.8417 21.2083 19.5 22.0333 19.5 23C19.5 23.9667 19.8417 24.7917 20.525 25.475C21.2083 26.1583 22.0333 26.5 23 26.5ZM23 28C21.6167 28 20.4375 27.5125 19.4625 26.5375C18.4875 25.5625 18 24.3833 18 23C18 21.6167 18.4875 20.4375 19.4625 19.4625C20.4375 18.4875 21.6167 18 23 18C24.3833 18 25.5625 18.4875 26.5375 19.4625C27.5125 20.4375 28 21.6167 28 23C28 24.3833 27.5125 25.5625 26.5375 26.5375C25.5625 27.5125 24.3833 28 23 28ZM12.75 23.75C12.5333 23.75 12.3542 23.6792 12.2125 23.5375C12.0708 23.3958 12 23.2167 12 23C12 22.7833 12.0708 22.6042 12.2125 22.4625C12.3542 22.3208 12.5333 22.25 12.75 22.25H15.25C15.4667 22.25 15.6458 22.3208 15.7875 22.4625C15.9292 22.6042 16 22.7833 16 23C16 23.2167 15.9292 23.3958 15.7875 23.5375C15.6458 23.6792 15.4667 23.75 15.25 23.75H12.75ZM30.75 23.75C30.5333 23.75 30.3542 23.6792 30.2125 23.5375C30.0708 23.3958 30 23.2167 30 23C30 22.7833 30.0708 22.6042 30.2125 22.4625C30.3542 22.3208 30.5333 22.25 30.75 22.25H33.25C33.4667 22.25 33.6458 22.3208 33.7875 22.4625C33.9292 22.6042 34 22.7833 34 23C34 23.2167 33.9292 23.3958 33.7875 23.5375C33.6458 23.6792 33.4667 23.75 33.25 23.75H30.75ZM23 16C22.7833 16 22.6042 15.9292 22.4625 15.7875C22.3208 15.6458 22.25 15.4667 22.25 15.25V12.75C22.25 12.5333 22.3208 12.3542 22.4625 12.2125C22.6042 12.0708 22.7833 12 23 12C23.2167 12 23.3958 12.0708 23.5375 12.2125C23.6792 12.3542 23.75 12.5333 23.75 12.75V15.25C23.75 15.4667 23.6792 15.6458 23.5375 15.7875C23.3958 15.9292 23.2167 16 23 16ZM23 34C22.7833 34 22.6042 33.9292 22.4625 33.7875C22.3208 33.6458 22.25 33.4667 22.25 33.25V30.75C22.25 30.5333 22.3208 30.3542 22.4625 30.2125C22.6042 30.0708 22.7833 30 23 30C23.2167 30 23.3958 30.0708 23.5375 30.2125C23.6792 30.3542 23.75 30.5333 23.75 30.75V33.25C23.75 33.4667 23.6792 33.6458 23.5375 33.7875C23.3958 33.9292 23.2167 34 23 34ZM17 18.05L15.575 16.65C15.425 16.5 15.3542 16.3208 15.3625 16.1125C15.3708 15.9042 15.4417 15.725 15.575 15.575C15.725 15.425 15.9042 15.35 16.1125 15.35C16.3208 15.35 16.5 15.425 16.65 15.575L18.05 17C18.1833 17.15 18.25 17.325 18.25 17.525C18.25 17.725 18.1833 17.8917 18.05 18.025C17.9167 18.175 17.7458 18.25 17.5375 18.25C17.3292 18.25 17.15 18.1833 17 18.05ZM29.35 30.425L27.95 29C27.8167 28.85 27.75 28.6708 27.75 28.4625C27.75 28.2542 27.825 28.0833 27.975 27.95C28.1083 27.8 28.275 27.725 28.475 27.725C28.675 27.725 28.85 27.8 29 27.95L30.425 29.35C30.575 29.5 30.6458 29.6792 30.6375 29.8875C30.6292 30.0958 30.5583 30.275 30.425 30.425C30.275 30.575 30.0958 30.65 29.8875 30.65C29.6792 30.65 29.5 30.575 29.35 30.425V30.425ZM27.95 18.05C27.8 17.9 27.725 17.725 27.725 17.525C27.725 17.325 27.8 17.15 27.95 17L29.35 15.575C29.5 15.425 29.6792 15.3542 29.8875 15.3625C30.0958 15.3708 30.275 15.4417 30.425 15.575C30.575 15.725 30.65 15.9042 30.65 16.1125C30.65 16.3208 30.575 16.5 30.425 16.65L29 18.05C28.8667 18.1833 28.6958 18.25 28.4875 18.25C28.2792 18.25 28.1 18.1833 27.95 18.05ZM15.575 30.425C15.425 30.275 15.35 30.0958 15.35 29.8875C15.35 29.6792 15.425 29.5 15.575 29.35L17 27.95C17.15 27.8 17.325 27.725 17.525 27.725C17.725 27.725 17.9 27.8 18.05 27.95C18.2 28.1 18.275 28.275 18.275 28.475C18.275 28.675 18.2 28.85 18.05 29L16.65 30.425C16.5 30.575 16.3208 30.6458 16.1125 30.6375C15.9042 30.6292 15.725 30.5583 15.575 30.425V30.425Z" fill="white"/>
</svg>
