<svg width="44" height="46" viewBox="0 0 44 46" fill="none" xmlns="http://www.w3.org/2000/svg">
<g clip-path="url(#clip0_896_203)">
<path fill-rule="evenodd" clip-rule="evenodd" d="M19.8126 31.6931C19.8183 31.4366 20.3982 29.2477 20.5108 28.7973C20.5802 28.5196 20.7309 28.0558 20.7367 27.7911C20.9762 27.9515 22.3093 29.1174 22.5337 29.1773C22.3624 29.4332 20.8502 30.728 20.5183 31.0639L19.8126 31.6931ZM25.1521 20.0897L22.8341 22.5465C22.7336 22.6725 22.7209 22.7028 22.5986 22.8245L20.2823 25.283C20.1914 25.3969 20.111 25.4652 20.0052 25.5706C19.8195 25.7553 19.6278 25.9005 19.5357 26.1793L18.4777 30.4609L18.206 29.7572C17.9629 29.1431 16.4295 24.746 16.4241 24.5052C16.6338 24.4563 17.2153 24.1096 17.5194 23.9575C17.9051 23.7647 18.229 23.6028 18.6147 23.4099L24.0444 20.6248C24.2425 20.5062 24.9577 20.135 25.1523 20.0897H25.1521ZM29.4135 32.5659C29.0566 32.5659 27.6032 31.3113 27.3484 31.0885C27.0344 30.8139 26.7059 30.558 26.3844 30.3069L21.4556 26.3535C21.7479 25.917 22.1407 25.6351 22.4748 25.2164C22.6189 25.0357 22.8353 24.8438 23.0089 24.6723C23.2111 24.4724 23.3175 24.3098 23.5219 24.1072L24.829 22.7445C24.9411 22.6103 24.9562 22.5684 25.0872 22.4379L26.1405 21.3349C26.234 21.2415 26.3114 21.1747 26.3968 21.0777L27.4263 19.9509C27.5163 19.8434 27.6061 19.7664 27.7064 19.6662L29.2725 17.9977C30.1795 17.1125 29.3048 16.4958 28.9001 16.4958C28.5812 16.4958 28.0229 16.8318 27.7706 16.9579L23.4236 19.1827C23.2215 19.2837 23.0775 19.3532 22.8752 19.4558C22.6665 19.5617 22.564 19.6396 22.3456 19.7477L20.162 20.8499C19.49 21.2592 18.6952 21.5704 17.9811 21.9549L16.9032 22.5199C16.5207 22.7112 16.1758 22.8843 15.8075 23.0672C15.7052 23.1181 15.6416 23.1534 15.5415 23.2157C15.2635 23.3889 15.1808 23.2727 14.633 23.1129C14.2668 23.0061 11.0233 22.0463 10.7763 22.0408V21.9381C11.0357 21.9165 16.6049 19.7166 17.5214 19.3902L22.4632 17.5035C22.7047 17.4175 22.8657 17.3417 23.0925 17.2599L32.9811 13.4899C33.7459 13.2494 33.4969 13.8693 33.3968 14.3694C33.2982 14.8624 33.2078 15.3146 33.1145 15.7813C32.7332 17.6881 32.352 19.5424 31.9678 21.4632C31.5964 23.3203 31.1845 25.2776 30.8127 27.1365L29.957 31.3636C29.8807 31.745 29.8062 32.5659 29.4136 32.5659H29.4135ZM8.77399 21.9381C8.77399 23.153 9.95975 23.4078 10.8851 23.6776L14.52 24.7148C14.9086 24.8204 14.8215 24.7923 14.9547 25.2043C15.1106 25.6867 15.259 26.0937 15.4286 26.5787L16.8791 30.7245C16.9619 30.9747 17.0363 31.1404 17.1234 31.4043C17.4978 32.5389 18.0785 33.6616 19.6028 33.4881C20.294 33.4094 20.8882 32.9088 21.3403 32.4507C21.8557 31.9286 22.8179 31.1305 23.2659 30.6797C23.4393 30.5053 23.5502 30.3177 23.8171 30.2554L27.6283 33.3241C28.5499 34.0782 29.6414 34.5222 30.6831 33.6301C31.3039 33.0984 31.4238 32.0376 31.5655 31.3293L34.5519 16.6028C34.7167 15.7785 35.061 14.4268 35.061 13.6206C35.061 12.6181 34.2428 11.875 33.5207 11.875C32.5955 11.875 32.4329 12.0004 31.5039 12.374C30.9684 12.5893 30.476 12.7525 29.9411 12.9676C29.4201 13.1771 28.889 13.3801 28.3804 13.5633C27.8565 13.752 27.3565 13.9614 26.8245 14.1638L19.0574 17.1273C18.5233 17.3357 18.0002 17.516 17.4945 17.7207C16.9687 17.9334 16.4743 18.1082 15.9319 18.3145C15.3997 18.5169 14.9 18.726 14.376 18.915L9.7142 20.7223C9.296 20.9321 8.77368 21.3487 8.77368 21.9381L8.77399 21.9381Z" fill="white"/>
</g>
<defs>
<clipPath id="clip0_896_203">
<rect width="26.2872" height="22.2502" fill="white" transform="translate(8.77393 11.875)"/>
</clipPath>
</defs>
</svg>
