<svg width="26" height="24" viewBox="0 0 26 24" fill="none" xmlns="http://www.w3.org/2000/svg">
<path fill-rule="evenodd" clip-rule="evenodd" d="M22.441 3.44221C22.3349 3.89795 21.6191 4.88496 21.6401 5.38148C21.6846 6.42171 22.969 6.02833 23.5352 6.02833C23.1061 6.66897 22.8596 6.95664 22.9512 7.65653C23.2319 9.80118 23.2645 11.5453 22.5727 13.6201C22.1535 14.8771 21.3927 16.2395 20.6072 17.2251C20.3333 17.5687 19.6301 18.3895 19.2958 18.6987C17.4322 20.4224 15.0893 21.2318 12.4984 21.4502C10.2106 21.6429 8.54911 21.4901 6.38032 21.0444C6.09814 20.9864 5.79803 20.9131 5.50194 20.8286L4.66965 20.5667C4.66215 20.5634 4.64642 20.5574 4.636 20.5506C5.80004 20.2794 6.46902 20.2807 7.70384 19.5402C8.36514 19.1435 9.47907 18.3055 9.96718 17.6755C10.1095 17.4919 10.178 17.1296 10.0581 16.8692C9.82782 16.369 9.12574 16.3895 8.56027 16.2781C7.76455 16.1214 6.94799 15.8589 6.2128 15.542C5.91397 15.4131 5.03011 14.9802 4.88453 14.7814C5.1124 14.7284 5.60783 14.4623 5.82674 14.331C6.10289 14.1655 6.45293 14.0016 6.57326 13.6843C6.91415 12.7862 5.80315 12.6051 5.15154 12.3756C4.23659 12.0534 3.29036 11.3687 2.70971 10.5901C2.56139 10.3913 2.25671 9.90725 2.19892 9.65871C2.36717 9.73937 4.58406 10.0243 4.37887 8.77595C4.29822 8.28564 3.54292 7.93012 3.20294 6.66531C2.91508 5.59509 3.08425 5.45116 3.14387 4.735L4.27572 6.13953C5.85673 7.93469 8.19743 9.28801 10.4944 9.86775C11.119 10.0254 12.5206 10.2651 13.2411 10.2591C14.5127 10.2481 13.9853 8.98516 13.9853 8.21651C13.9853 5.20976 16.4886 2.68014 19.4763 3.72073C20.7373 4.16002 20.1782 4.52962 21.7111 3.75694C21.8945 3.66441 22.2548 3.48573 22.441 3.44221ZM18.3627 1.95008C16.9633 1.95008 15.6592 2.34272 14.6952 3.20629L13.9244 3.97713C13.2283 4.75347 12.6427 6.15745 12.5072 7.18524C12.4447 7.65945 12.4445 8.13367 12.4445 8.66421C12.1213 8.58904 11.7294 8.55594 11.3792 8.48626C10.2887 8.269 9.47943 7.9859 8.49827 7.48791C7.83515 7.15141 7.16507 6.68689 6.58734 6.21579C6.43885 6.09472 6.3774 6.05613 6.23987 5.91678C5.07729 4.73902 4.81559 4.52066 3.9491 3.08486C3.77719 2.79993 3.69471 2.51262 3.3593 2.38094C2.65247 2.1037 2.25817 2.79791 1.98312 3.37491C1.29073 4.82698 1.35584 6.66074 2.09998 8.06728C1.56889 7.94347 1.56103 7.81856 0.956056 7.81856C0.662349 7.81856 0.30957 8.12617 0.30957 8.51479C0.30957 9.4548 0.966298 10.8442 1.52336 11.5782L2.01293 12.1331C2.35583 12.4729 2.50397 12.6166 2.89552 12.8919L3.89057 13.538C3.0228 13.7401 2.54767 13.8026 2.54767 14.5824C2.54767 15.3794 5.14167 16.8211 6.12264 17.1744C6.37502 17.2653 6.60307 17.3626 6.8955 17.446C7.12721 17.512 7.51327 17.6486 7.72011 17.6658L7.58112 17.7755C7.52059 17.8185 7.47048 17.8492 7.4019 17.8946C4.68702 19.6932 2.05975 18.8331 1.27153 19.1746C1.12888 19.2364 1.06103 19.3059 0.973979 19.424C0.134918 20.5628 2.98659 21.6353 3.71044 21.8745C7.01821 22.9679 10.4418 23.4226 13.9375 22.8386C15.9013 22.5105 17.6332 21.8613 19.2093 20.7496C19.3843 20.6261 19.5222 20.531 19.6948 20.3897C19.8816 20.2366 19.9701 20.1428 20.1418 19.9912L20.5891 19.593C20.6636 19.519 20.7184 19.4723 20.7857 19.3917C21.2822 18.7977 21.5524 18.57 22.1014 17.8227C23.5154 15.8974 24.6796 13.1247 24.6796 10.4542C24.6796 9.60495 24.6965 9.05283 24.5895 8.207C24.5589 7.96615 24.5178 7.77101 24.4975 7.5468C24.4578 7.10679 25.7738 5.78693 25.7738 5.03328C25.7738 4.7178 25.4578 4.38606 25.0719 4.34034C24.7967 4.30778 24.6875 4.37856 24.4309 4.38661C24.1262 4.3963 24.0331 4.43635 23.7347 4.43635C23.8479 3.95062 24.9781 2.16716 24.9781 1.70099C24.9781 1.27908 24.6356 0.905273 24.2321 0.905273C23.9198 0.905273 21.8781 1.95794 21.4635 2.16514C20.4602 2.66679 20.9053 2.60095 20.0624 2.28969C19.5833 2.11284 19.0255 1.95008 18.3627 1.95008Z" fill="white"/>
</svg>
